####
#
# OBJ File Generated by Meshlab
#
####
# Object CLOTH2.obj
#
# Vertices: 25
# Faces: 32
#
####
mtllib ./CLOTH2.obj.mtl

vn -0.031442 0.999045 0.030346
vt 0.000000 0.000000
v 0.000000 0.004190 -2.000000
vn -0.258806 0.965603 0.025094
vt 1.000000 0.000000
v 1.000000 0.035662 -2.000000
vn -0.214393 0.976648 -0.013969
vt 2.000000 0.000000
v 2.000000 0.783375 -2.000000
vn 0.385698 0.922544 -0.012239
vt 3.000000 0.000000
v 3.000000 0.003654 -2.000000
vn -0.386825 0.912530 0.132873
vt 4.000000 0.000000
v 4.000000 0.278725 -2.000000
vn -0.027036 0.998185 0.053808
vt 0.000000 1.000000
v 0.000000 0.034564 -3.000000
vn -0.332642 0.942700 0.025794
vt 1.000000 1.000000
v 1.000000 0.059456 -3.000000
vn 0.035196 0.999377 -0.002425
vt 2.000000 1.000000
v 2.000000 0.750023 -3.000000
vn 0.139361 0.988967 0.050228
vt 3.000000 1.000000
v 3.000000 0.000431 -3.000000
vn -0.568262 0.801088 0.187980
vt 4.000000 1.000000
v 4.000000 0.573168 -3.000000
vn 0.032631 0.998541 0.043023
vt 0.000000 2.000000
v 0.000000 0.142112 -4.000000
vn -0.290628 0.956800 -0.008319
vt 1.000000 2.000000
v 1.000000 0.080649 -4.000000
vn 0.068460 0.994029 -0.084965
vt 2.000000 2.000000
v 2.000000 0.767110 -4.000000
vn -0.081885 0.996170 0.030680
vt 3.000000 2.000000
v 3.000000 0.000255 -4.000000
vn -0.697937 0.708672 0.103288
vt 4.000000 2.000000
v 4.000000 0.982868 -4.000000
vn 0.098561 0.993616 -0.054890
vt 0.000000 3.000000
v 0.000000 0.142628 -5.000000
vn -0.252654 0.966988 -0.033180
vt 1.000000 3.000000
v 1.000000 0.024569 -5.000000
vn 0.146991 0.966090 -0.212282
vt 2.000000 3.000000
v 2.000000 0.521724 -5.000000
vn -0.353874 0.934325 0.042555
vt 3.000000 3.000000
v 3.000000 0.010668 -5.000000
vn -0.542064 0.836517 -0.080043
vt 4.000000 3.000000
v 4.000000 1.000000 -5.000000
vn -0.002482 0.999943 0.010376
vt 0.000000 4.000000
v 0.000000 0.032464 -6.000000
vn -0.164577 0.983659 -0.073002
vt 1.000000 4.000000
v 1.000000 0.155488 -6.000000
vn 0.096237 0.975459 -0.198037
vt 2.000000 4.000000
v 2.000000 0.037244 -6.000000
vn -0.394453 0.918758 0.017062
vt 3.000000 4.000000
v 3.000000 0.370569 -6.000000
vn 0.028861 0.832693 -0.552983
vt 4.000000 4.000000
v 4.000000 0.335909 -6.000000
# 25 vertices, 0 vertices normals


usemtl material_0
f 1/1/1 2/2/2 6/6/6
f 2/2/2 7/7/7 6/6/6
f 2/2/2 3/3/3 7/7/7
f 3/3/3 8/8/8 7/7/7
f 3/3/3 4/4/4 8/8/8
f 4/4/4 9/9/9 8/8/8
f 4/4/4 5/5/5 9/9/9
f 5/5/5 10/10/10 9/9/9
f 6/6/6 7/7/7 11/11/11
f 7/7/7 12/12/12 11/11/11
f 7/7/7 8/8/8 12/12/12
f 8/8/8 13/13/13 12/12/12
f 8/8/8 9/9/9 13/13/13
f 9/9/9 14/14/14 13/13/13
f 9/9/9 10/10/10 14/14/14
f 10/10/10 15/15/15 14/14/14
f 11/11/11 12/12/12 16/16/16
f 12/12/12 17/17/17 16/16/16
f 12/12/12 13/13/13 17/17/17
f 13/13/13 18/18/18 17/17/17
f 13/13/13 14/14/14 18/18/18
f 14/14/14 19/19/19 18/18/18
f 14/14/14 15/15/15 19/19/19
f 15/15/15 20/20/20 19/19/19
f 16/16/16 17/17/17 21/21/21
f 17/17/17 22/22/22 21/21/21
f 17/17/17 18/18/18 22/22/22
f 18/18/18 23/23/23 22/22/22
f 18/18/18 19/19/19 23/23/23
f 19/19/19 24/24/24 23/23/23
f 19/19/19 20/20/20 24/24/24
f 20/20/20 25/25/25 24/24/24
# 32 faces, 0 coords texture

# End of File
